<svg width="103" height="127" viewBox="0 0 103 127" fill="none" xmlns="http://www.w3.org/2000/svg">
<path d="M0.498665 45.1914C0.659686 44.989 1.02587 44.7172 1.3127 44.5871C1.81337 44.3595 2.69069 44.3503 23.6984 44.3475C47.0735 44.3447 46.7805 44.3378 51.5463 44.9898C55.1066 45.4769 60.6135 46.6393 64.862 47.7998C76.3588 50.9411 84.7278 55.2326 90.7542 61.077C93.9705 64.1964 95.8964 66.8707 97.709 70.7345C98.8474 73.161 99.5152 75.6258 99.7864 78.4022C99.862 79.1754 99.9533 79.9933 99.9893 80.2196C100.043 80.56 99.9783 80.7149 99.6124 81.1143C99.4649 81.2753 99.3172 81.4361 99.1697 81.5971C91.2324 81.5971 83.2955 81.5971 75.3582 81.5971C50.3837 81.5971 50.5662 81.6007 45.3709 81.0189C37.2346 80.1073 29.3101 78.2417 23.5828 75.8889C21.18 74.9019 17.3877 72.9247 15.5279 71.6893C10.4051 68.2862 5.88482 63.2987 3.3705 58.2744C1.4824 54.5017 0.503512 50.8988 0.280737 46.9006C0.210307 45.6359 0.222812 45.5376 0.498665 45.1914Z" fill="white"/>
<path d="M57.0295 2.46931C57.4085 1.2873 58.1707 0.49903 59.2476 0.174947C59.7301 0.0294924 63.2131 -0.000110588 79.586 0.000910145C86.1712 0.00142051 92.7567 0.00193213 99.342 0.00218731C99.5551 0.101709 99.7679 0.200977 99.981 0.300498C100.332 0.464326 100.833 0.835109 101.094 1.12449C102.03 2.16232 101.969 0.312501 101.932 26.7156C101.92 34.6155 101.909 42.5152 101.898 50.4149C101.797 50.5775 101.696 50.7403 101.595 50.9029C101.224 51.4995 100.562 51.9486 99.7623 52.1469C98.9189 52.3556 98.0857 52.1306 96.9407 51.3834C90.8475 47.4084 85.6752 44.7496 78.3197 41.8122C72.2012 39.3686 70.0026 38.2363 67.0736 36.0218C62.0018 32.1872 58.5178 26.9246 57.2171 21.1332C56.9428 19.9111 56.9326 19.6095 56.8963 11.4375C56.866 4.66184 56.8922 2.89776 57.0295 2.46931Z" fill="white"/>
<path d="M0.866944 88.2934C0.993515 87.6455 1.56895 86.714 2.08672 86.3193C3.00819 85.6162 2.89948 85.6226 13.6468 85.6226C19.7686 85.6226 23.9804 85.6739 24.6488 85.7563C31.0503 86.5459 37.2571 89.7561 41.2653 94.3507C44.0835 97.581 45.8788 101.266 46.7155 105.538C46.8293 106.12 46.9434 106.702 47.0574 107.284C47.074 110.011 47.0904 112.737 47.1069 115.464C47.1562 123.557 47.1539 123.652 46.8849 124.371C46.6862 124.902 46.4299 125.265 45.9336 125.719C44.6809 126.864 46.5889 126.773 23.8049 126.773C17.1022 126.773 10.3993 126.773 3.69667 126.773C3.45271 126.682 3.20851 126.59 2.96455 126.499C1.92009 126.108 1.07976 125.241 0.890673 124.36C0.730162 123.612 0.707454 89.1097 0.866944 88.2934Z" fill="white"/>
<path d="M52.2399 90.4783C52.5612 89.4323 53.2084 88.6662 54.2151 88.14C54.4759 88.0037 54.7364 87.8675 54.997 87.7315C62.4853 87.7202 69.9737 87.709 77.462 87.698C84.9501 87.6868 92.4387 87.6758 99.9271 87.6646C100.139 87.7557 100.35 87.8466 100.562 87.9377C101.53 88.3541 101.921 88.8788 102.031 89.91C102.166 91.168 101.973 95.5406 101.701 97.407C100.642 104.665 97.1175 111.662 91.8658 116.932C87.0077 121.807 81.0867 124.954 74.1663 126.338C73.5697 126.458 72.9736 126.577 72.377 126.696C69.5309 126.712 66.6843 126.727 63.8383 126.742C54.1827 126.794 54.5524 126.827 53.4207 125.809C53.0479 125.474 52.672 124.974 52.4903 124.572C52.3887 124.347 52.2869 124.122 52.1853 123.898C52.1782 118.381 52.1708 112.864 52.1634 107.348C52.1514 98.2458 52.1858 90.6543 52.2399 90.4783Z" fill="white"/>
<path d="M0.066435 30.7985C0.529082 22.2828 3.58796 15.0879 9.11626 9.51186C13.6606 4.92774 19.5078 1.82779 25.9783 0.571266C28.5429 0.0734027 30.0742 0.000665993 38.0094 0.000155626C46.5346 -0.000354741 46.2692 -0.0279187 47.3851 0.975207C47.8324 1.37763 48.0948 1.74969 48.2805 2.24628C48.5406 2.94166 48.5431 3.11264 48.5431 19.3405C48.5431 24.8042 48.5431 30.2682 48.5431 35.7322C48.4329 35.9535 48.3229 36.1747 48.2124 36.396C48.0304 36.7611 47.65 37.2582 47.367 37.5004C46.3161 38.3999 48.0356 38.3384 23.9797 38.3384C0.162638 38.3384 1.91677 38.3963 0.87945 37.5746C0.0429593 36.9122 -0.0223699 36.6386 0.0046795 33.9102C0.0176939 32.5853 0.04551 31.1851 0.066435 30.7985Z" fill="white"/>
</svg>
