<svg width="136" height="158" viewBox="0 0 136 158" fill="none" xmlns="http://www.w3.org/2000/svg">
<rect width="136" height="158" fill="black"/>
<path d="M16.4987 61.1914C16.6597 60.989 17.0259 60.7172 17.3127 60.5871C17.8134 60.3595 18.6907 60.3503 39.6984 60.3475C63.0735 60.3447 62.7805 60.3378 67.5463 60.9898C71.1066 61.4769 76.6135 62.6393 80.862 63.7998C92.3588 66.9411 100.728 71.2326 106.754 77.077C109.971 80.1964 111.896 82.8707 113.709 86.7345C114.847 89.161 115.515 91.6258 115.786 94.4022C115.862 95.1754 115.953 95.9933 115.989 96.2196C116.043 96.56 115.978 96.7149 115.612 97.1143C115.465 97.2753 115.317 97.4361 115.17 97.5971C107.232 97.5971 99.2955 97.5971 91.3582 97.5971C66.3837 97.5971 66.5662 97.6007 61.3709 97.0189C53.2346 96.1073 45.3101 94.2417 39.5828 91.8889C37.18 90.9019 33.3877 88.9247 31.5279 87.6893C26.4051 84.2862 21.8848 79.2987 19.3705 74.2744C17.4824 70.5017 16.5035 66.8988 16.2807 62.9006C16.2103 61.6359 16.2228 61.5376 16.4987 61.1914Z" fill="#00C483"/>
<path d="M73.0295 18.4693C73.4085 17.2873 74.1707 16.499 75.2476 16.1749C75.7301 16.0295 79.2131 15.9999 95.586 16.0009C102.171 16.0014 108.757 16.0019 115.342 16.0022C115.555 16.1017 115.768 16.2009 115.981 16.3005C116.332 16.4643 116.833 16.8351 117.094 17.1245C118.03 18.1623 117.969 16.3125 117.932 42.7155C117.92 50.6155 117.909 58.5152 117.898 66.4149C117.797 66.5775 117.696 66.7403 117.595 66.9028C117.224 67.4995 116.562 67.9486 115.762 68.1469C114.919 68.3556 114.086 68.1305 112.941 67.3833C106.847 63.4084 101.675 60.7496 94.3197 57.8122C88.2012 55.3685 86.0026 54.2363 83.0736 52.0218C78.0018 48.1872 74.5178 42.9245 73.2171 37.1331C72.9428 35.9111 72.9326 35.6094 72.8963 27.4374C72.866 20.6618 72.8922 18.8977 73.0295 18.4693Z" fill="#00C483"/>
<path d="M16.8669 104.293C16.9935 103.645 17.569 102.714 18.0867 102.319C19.0082 101.616 18.8995 101.623 29.6468 101.623C35.7686 101.623 39.9804 101.674 40.6488 101.756C47.0503 102.546 53.2571 105.756 57.2653 110.351C60.0835 113.581 61.8788 117.266 62.7155 121.538C62.8293 122.12 62.9434 122.702 63.0574 123.284C63.074 126.011 63.0904 128.737 63.1069 131.464C63.1562 139.557 63.1539 139.652 62.8849 140.371C62.6862 140.902 62.4299 141.265 61.9336 141.719C60.6809 142.864 62.5889 142.773 39.8049 142.773C33.1022 142.773 26.3993 142.773 19.6967 142.773C19.4527 142.682 19.2085 142.59 18.9646 142.499C17.9201 142.108 17.0798 141.241 16.8907 140.36C16.7302 139.612 16.7075 105.11 16.8669 104.293Z" fill="#00C483"/>
<path d="M68.2399 106.478C68.5612 105.432 69.2084 104.666 70.2151 104.14C70.4759 104.004 70.7364 103.867 70.997 103.731C78.4853 103.72 85.9737 103.709 93.462 103.698C100.95 103.687 108.439 103.676 115.927 103.665C116.139 103.756 116.35 103.847 116.562 103.938C117.53 104.354 117.921 104.879 118.031 105.91C118.166 107.168 117.973 111.541 117.701 113.407C116.642 120.665 113.118 127.662 107.866 132.932C103.008 137.807 97.0867 140.954 90.1663 142.338C89.5697 142.458 88.9736 142.577 88.377 142.696C85.5309 142.712 82.6843 142.727 79.8383 142.742C70.1827 142.794 70.5524 142.827 69.4207 141.809C69.0479 141.474 68.672 140.974 68.4903 140.572C68.3887 140.347 68.2869 140.122 68.1853 139.898C68.1782 134.381 68.1708 128.864 68.1634 123.348C68.1514 114.246 68.1858 106.654 68.2399 106.478Z" fill="#00C483"/>
<path d="M16.0664 46.7985C16.5291 38.2828 19.588 31.0879 25.1163 25.5119C29.6606 20.9277 35.5078 17.8278 41.9783 16.5713C44.5429 16.0734 46.0742 16.0007 54.0094 16.0002C62.5346 15.9996 62.2692 15.9721 63.3851 16.9752C63.8324 17.3776 64.0948 17.7497 64.2805 18.2463C64.5406 18.9417 64.5431 19.1126 64.5431 35.3405C64.5431 40.8042 64.5431 46.2682 64.5431 51.7322C64.4329 51.9535 64.3229 52.1747 64.2124 52.396C64.0304 52.7611 63.65 53.2582 63.367 53.5004C62.3161 54.3999 64.0356 54.3384 39.9797 54.3384C16.1626 54.3384 17.9168 54.3963 16.8795 53.5746C16.043 52.9122 15.9776 52.6386 16.0047 49.9102C16.0177 48.5853 16.0455 47.1851 16.0664 46.7985Z" fill="#00C483"/>
</svg>
